<?xml version="1.0" encoding="UTF-8"?>
<svg version="1.1" xmlns="http://www.w3.org/2000/svg" width="488" height="586">
<path d="M0 0 C0.91023926 0.45648926 1.82047852 0.91297852 2.75830078 1.38330078 C17.21085833 8.67369398 31.26778339 16.4307935 45 25 C45.6074707 25.37511719 46.21494141 25.75023437 46.84082031 26.13671875 C64.10373954 36.81808798 80.79632241 48.51607839 96.32324219 61.59521484 C98.81284625 63.68100136 101.3468256 65.71126326 103.875 67.75 C108.31632926 71.38076992 112.58575318 75.17273521 116.80859375 79.0546875 C118.9526996 81.02682324 118.9526996 81.02682324 121.28515625 82.6328125 C121.85105469 83.08398438 122.41695313 83.53515625 123 84 C123 84.66 123 85.32 123 86 C123.58007812 86.25136719 124.16015625 86.50273437 124.7578125 86.76171875 C127.27966022 88.1544465 128.89144079 89.72936452 130.875 91.8125 C133.20786355 94.21435766 135.46142624 96.37667448 138.0625 98.5 C141.18668002 101.15887661 143.69289334 104.04033077 146.34375 107.15625 C148.356867 109.39726704 150.64476611 111.12789101 153 113 C159 119.3 159 119.3 159 122 C159.99 122.33 160.98 122.66 162 123 C163.41696507 124.57054206 164.76106816 126.20746664 166.0625 127.875 C169.20973527 131.82556834 172.43210004 135.61701089 175.875 139.3125 C181.63725862 145.58398147 186.83233251 152.23867542 192 159 C193.12535156 160.46566406 193.12535156 160.46566406 194.2734375 161.9609375 C215.22671639 189.57085373 234.05390137 218.69011023 249 250 C249.32709961 250.67933594 249.65419922 251.35867188 249.99121094 252.05859375 C259.85416317 272.72749267 271.02260807 298.70370981 270 322 C270.66 322 271.32 322 272 322 C272.62930416 350.98671789 270.31041412 376.98546076 252.2265625 400.77734375 C251 402 251 402 249 402 C248.75636719 402.58265625 248.51273437 403.1653125 248.26171875 403.765625 C242.5648646 413.85417166 226.75236149 420.84732873 215.9440918 423.92675781 C174.45871961 434.82558974 126.82183654 419.7488996 90.14404297 400.13525391 C87.67337037 398.82705218 85.18365223 397.55957776 82.69140625 396.29296875 C63.34405667 386.41357614 44.66027802 375.67022272 27 363 C26.0203125 362.30390625 25.040625 361.6078125 24.03125 360.890625 C13.92450723 353.63003393 4.10821965 346.05572901 -5.33984375 337.95898438 C-8.46081889 335.28655518 -11.62800011 332.70459578 -14.875 330.1875 C-20.16841954 326.0103205 -25.03009352 321.39109919 -29.91162109 316.74682617 C-30.52730957 316.16263916 -31.14299805 315.57845215 -31.77734375 314.9765625 C-32.60093384 314.18886475 -32.60093384 314.18886475 -33.44116211 313.38525391 C-35.15999813 311.79362369 -35.15999813 311.79362369 -38 310 C-38 309.34 -38 308.68 -38 308 C-38.568396 307.75685059 -39.13679199 307.51370117 -39.72241211 307.26318359 C-42.42643465 305.7634931 -44.2609621 303.98135815 -46.44140625 301.7890625 C-47.27220703 300.95632813 -48.10300781 300.12359375 -48.95898438 299.265625 C-50.24772461 297.95851563 -50.24772461 297.95851563 -51.5625 296.625 C-52.42552734 295.76132812 -53.28855469 294.89765625 -54.17773438 294.0078125 C-60.61199979 287.52855222 -60.61199979 287.52855222 -62.58178711 284.84521484 C-64.04346552 282.73870005 -64.04346552 282.73870005 -67 281 C-67.87458856 279.9067643 -68.70334453 278.77626431 -69.5 277.625 C-72.20375529 273.91488417 -75.18418532 270.53957309 -78.3125 267.1875 C-83.46088229 261.65003619 -88.2918712 255.91924881 -93 250 C-93.40653809 249.49307617 -93.81307617 248.98615234 -94.23193359 248.46386719 C-114.19706981 223.5550555 -133.0517189 197.25451616 -148 169 C-148.99 169 -149.98 169 -151 169 C-150.67 168.01 -150.34 167.02 -150 166 C-150.83769052 163.68397809 -150.83769052 163.68397809 -152.2109375 161.1875 C-152.71012695 160.20644287 -153.20931641 159.22538574 -153.72363281 158.21459961 C-154.54105957 156.6233728 -154.54105957 156.6233728 -155.375 155 C-162.01159778 141.71208697 -166.6627647 128.20261344 -171 114 C-171.66 114 -172.32 114 -173 114 C-174 109.125 -174 109.125 -174 108 C-174.50685694 101.61360252 -175.41132199 95.36977498 -176.5 89.0625 C-181.05034409 62.35039605 -180.95900698 33.48605063 -166.03515625 9.8046875 C-152.7773589 -8.46613495 -134.24990913 -19.89129023 -111.9765625 -23.7578125 C-73.90200838 -29.4970604 -33.82263899 -17.00257419 0 0 Z " fill="#000000" transform="translate(182,92)"/>
<path d="M0 0 C10.05583613 9.13232459 18.65319742 19.1147972 26.28100586 30.33447266 C27.37515347 31.94210776 28.48814883 33.53687186 29.6027832 35.13037109 C55.87107696 74.07153854 69.40242619 119.67607416 77.04858398 165.58837891 C77.46231288 168.05333214 77.89706398 170.51375179 78.3371582 172.97412109 C78.60989741 174.52870278 78.88206262 176.08338532 79.15356445 177.63818359 C79.33290527 178.63628052 79.33290527 178.63628052 79.51586914 179.65454102 C80.40400776 184.89391532 80.81287112 190.13061389 81.19140625 195.42895508 C81.48850801 199.37367421 81.84602786 203.30954697 82.2199707 207.24755859 C82.28576828 207.94799789 82.35156586 208.64843719 82.4193573 209.37010193 C82.6900463 212.25089625 82.96166575 215.13158048 83.23925781 218.01171875 C83.97933475 225.71300945 84.6658373 233.32797156 84.46606445 241.07568359 C83.47606445 240.74568359 82.48606445 240.41568359 81.46606445 240.07568359 C80.75178048 238.42886222 80.09186395 236.75812147 79.46606445 235.07568359 C66.68454175 215.18186197 50.49707719 196.26850844 34.2824707 179.10302734 C32.25264582 176.95109163 30.31640671 174.73942219 28.39575195 172.48974609 C23.74354507 167.14583201 18.71310242 162.17314877 13.69628906 157.17553711 C12.03180168 155.51641039 10.37272999 153.85200308 8.71411133 152.18701172 C3.13605938 146.6055209 -2.52471806 141.19511456 -8.53393555 136.07568359 C-10.07874815 134.66244809 -11.62088879 133.2462795 -13.15893555 131.82568359 C-17.24473118 128.13834791 -21.46107973 124.66533616 -25.78393555 121.26318359 C-26.36224121 120.80717773 -26.94054687 120.35117188 -27.53637695 119.88134766 C-30.26662449 117.75390241 -32.96575381 115.8010271 -35.89331055 113.93896484 C-38.53393555 112.07568359 -38.53393555 112.07568359 -39.53393555 109.07568359 C-41.39983675 107.98918615 -41.39983675 107.98918615 -43.53393555 107.07568359 C-44.70988503 106.30156943 -45.86858339 105.50073917 -47.01049805 104.67724609 C-47.67299561 104.20319336 -48.33549316 103.72914063 -49.01806641 103.24072266 C-49.72455322 102.73250977 -50.43104004 102.22429687 -51.15893555 101.70068359 C-57.54012874 97.15716779 -63.96792338 92.69253448 -70.47143555 88.32568359 C-71.24632324 87.80055176 -72.02121094 87.27541992 -72.81958008 86.734375 C-73.53871582 86.25403809 -74.25785156 85.77370117 -74.9987793 85.27880859 C-75.63420654 84.85245117 -76.26963379 84.42609375 -76.92431641 83.98681641 C-78.51575161 82.91148041 -78.51575161 82.91148041 -80.53393555 83.07568359 C-81.11143555 82.47755859 -81.68893555 81.87943359 -82.28393555 81.26318359 C-84.84984537 78.76854904 -87.32712541 77.64764935 -90.53393555 76.07568359 C-92.08081055 74.93099609 -92.08081055 74.93099609 -93.65893555 73.76318359 C-97.51925934 70.93896402 -101.65073043 68.93659891 -105.94799805 66.85693359 C-108.54402279 65.58886973 -111.08630798 64.24551083 -113.61987305 62.85693359 C-125.09066387 56.59761671 -136.84897312 51.40044484 -148.9284668 46.42333984 C-152.89041106 44.78751988 -156.74529532 43.07910068 -160.53393555 41.07568359 C-153.31455578 29.7543835 -144.72330174 19.82037839 -135.53393555 10.07568359 C-134.79272461 9.28033203 -134.05151367 8.48498047 -133.2878418 7.66552734 C-127.24880234 1.38271014 -120.54702982 -3.79192661 -113.53393555 -8.92431641 C-112.77338867 -9.49150391 -112.0128418 -10.05869141 -111.22924805 -10.64306641 C-75.64794295 -35.88565266 -31.34167153 -27.80689654 0 0 Z " fill="#000000" transform="translate(313.533935546875,29.92431640625)"/>
<path d="M0 0 C0.66 0 1.32 0 2 0 C3.31852139 1.74614995 4.62898109 3.49862637 5.9140625 5.26953125 C13.17642143 14.7758775 21.44784141 23.55081557 29.55078125 32.33984375 C31.73645108 34.71375309 33.91293239 37.09337069 36.0625 39.5 C36.58972656 40.0878125 37.11695313 40.675625 37.66015625 41.28125 C39.07468301 43.09580328 40.04336604 44.91279864 41 47 C41.66 47 42.32 47 43 47 C46.54757898 50.2519474 49.61045313 53.83590618 52.66796875 57.546875 C53.9579691 59.12779183 53.9579691 59.12779183 56 60 C56 60.66 56 61.32 56 62 C56.56589844 62.23589844 57.13179687 62.47179687 57.71484375 62.71484375 C60.52302052 64.29414316 62.34382481 66.22686006 64.5625 68.5625 C68.87435696 72.96919252 73.38864049 76.86496381 78.203125 80.70703125 C81.12939596 83.106083 83.90859866 85.61970305 86.6875 88.1875 C90.21263192 91.4246634 93.74189677 94.45265403 97.62915039 97.24023438 C99.97746809 98.98327567 102.25805042 100.79874452 104.53768921 102.63020325 C112.68961426 109.15149909 121.16942024 115.05921633 129.875 120.8125 C130.59199066 121.28800293 131.30898132 121.76350586 132.04769897 122.25341797 C165.40268829 144.3409455 200.64993941 163.1520138 239 175 C236.12103231 180.44271995 232.78348059 184.8570359 228.6875 189.4375 C228.10572998 190.09637207 227.52395996 190.75524414 226.92456055 191.43408203 C225.78473842 192.72493418 224.64297465 194.01407515 223.49902344 195.30126953 C221.73681193 197.29825123 220.02671989 199.33680075 218.3125 201.375 C202.21650334 219.54159817 178.48971105 234.46568988 154 237 C125.69151096 238.61267088 102.73881917 231.94488709 80.9375 213.3125 C80.28144775 212.75361084 79.62539551 212.19472168 78.94946289 211.61889648 C78.33578857 211.08079346 77.72211426 210.54269043 77.08984375 209.98828125 C76.54191162 209.50915283 75.99397949 209.03002441 75.42944336 208.53637695 C73.83452304 206.82214406 72.94795861 205.13025374 72 203 C71.34 203 70.68 203 70 203 C68.24599879 200.99629723 66.61478155 198.98723532 65 196.875 C64.51523193 196.24843506 64.03046387 195.62187012 63.53100586 194.97631836 C60.13579222 190.55796517 56.81836453 186.08439683 53.5625 181.5625 C53.16224609 181.00868652 52.76199219 180.45487305 52.34960938 179.88427734 C50.35176504 177.07196612 48.52318147 174.2218582 46.83984375 171.21484375 C45.20238082 168.02738991 45.20238082 168.02738991 43 166 C15.19112147 115.51721572 5.36849383 56.76063792 0 0 Z " fill="#000000" transform="translate(79,343)"/>
<path d="M0 0 C18.15348282 -0.29558527 36.42935966 -0.28440311 54 5 C54.495 5.99 54.495 5.99 55 7 C56.74814281 7.6575685 56.74814281 7.6575685 58.875 8.1875 C66.73189824 10.64748731 73.83807497 15.6027743 80 21 C80 21.66 80 22.32 80 23 C80.66 23 81.32 23 82 23 C98.16741271 41.23684153 102.43155216 62.15216511 101.23193359 85.96289062 C100.158704 100.01654972 96.81569395 113.78198886 92 127 C91.73767578 127.73299316 91.47535156 128.46598633 91.20507812 129.22119141 C79.92868886 160.28334683 62.20804194 191.36356547 40 216 C39.34 216 38.68 216 38 216 C37.57589844 215.11699219 37.15179688 214.23398437 36.71484375 213.32421875 C33.34256554 206.39441496 29.7950571 199.81005048 25.48046875 193.40234375 C22.09668713 187.91151078 21.85291978 183.60003973 22.0625 177.25 C22.89831324 121.3477004 15.11735665 57.14620168 -10.28515625 6.828125 C-10.52105469 6.22484375 -10.75695312 5.6215625 -11 5 C-10.67 4.34 -10.34 3.68 -10 3 C-7.71484375 2.3671875 -7.71484375 2.3671875 -4.9375 1.875 C-4.01839844 1.70742187 -3.09929687 1.53984375 -2.15234375 1.3671875 C-1.44207031 1.24601562 -0.73179687 1.12484375 0 1 C0 0.67 0 0.34 0 0 Z " fill="#000000" transform="translate(383,94)"/>
<path d="M0 0 C3.19886226 1.36110884 4.8112922 2.70470503 6.76953125 5.5625 C7.26275879 6.27140381 7.75598633 6.98030762 8.26416016 7.71069336 C8.7751123 8.46616455 9.28606445 9.22163574 9.8125 10 C10.87796416 11.56444411 11.94436509 13.12825066 13.01171875 14.69140625 C13.52395996 15.44309082 14.03620117 16.19477539 14.56396484 16.96923828 C16.07463248 19.16348324 16.07463248 19.16348324 18.26953125 21.71484375 C22.35161057 26.60474508 23.52738332 30.90005891 24.0703125 37.16796875 C24.14840149 37.95817413 24.22649048 38.74837952 24.3069458 39.56253052 C24.54934113 42.04075467 24.7756612 44.52008288 25 47 C25.14314659 48.51400103 25.28716532 50.02791991 25.43212891 51.54174805 C25.64728596 53.79577069 25.86185796 56.04983527 26.07389832 58.30415344 C30.2287154 102.35671296 37.22043072 146.80046022 54 188 C52.68 188 51.36 188 50 188 C50 188.99 50 189.98 50 191 C49.45303467 190.83862549 48.90606934 190.67725098 48.3425293 190.51098633 C45.68156976 189.9305394 43.24314825 189.85598704 40.51953125 189.82421875 C17.99840042 189.38643934 -4.46358758 186.89013697 -22 171 C-22 170.34 -22 169.68 -22 169 C-22.99 168.67 -23.98 168.34 -25 168 C-25 167.34 -25 166.68 -25 166 C-25.66 166 -26.32 166 -27 166 C-40.57251961 150.45785353 -45.79942879 130.9991391 -44.90234375 110.80126953 C-42.32999576 74.64823775 -26.52848598 37.12149881 -4.43969727 8.71679688 C-1.35283972 4.75105442 -1.35283972 4.75105442 0 0 Z " fill="#000000" transform="translate(48,302)"/>
<path d="M0 0 C0.33 0 0.66 0 1 0 C1 1.65 1 3.3 1 5 C0.67 5 0.34 5 0 5 C0 3.35 0 1.7 0 0 Z " fill="#000000" transform="translate(403,241)"/>
<path d="M0 0 C0.66 0 1.32 0 2 0 C1.67 0.99 1.34 1.98 1 3 C0.67 2.01 0.34 1.02 0 0 Z " fill="#000000" transform="translate(400,225)"/>
<path d="M0 0 C0.66 0.33 1.32 0.66 2 1 C1.67 1.66 1.34 2.32 1 3 C0.34 2.34 -0.32 1.68 -1 1 C-0.67 0.67 -0.34 0.34 0 0 Z " fill="#000000" transform="translate(375,110)"/>
<path d="M0 0 C0.99 0.495 0.99 0.495 2 1 C1.67 1.66 1.34 2.32 1 3 C0.67 2.01 0.34 1.02 0 0 Z " fill="#000000" transform="translate(279,496)"/>
<path d="M0 0 C0.99 0.33 1.98 0.66 3 1 C2.01 1 1.02 1 0 1 C0 0.67 0 0.34 0 0 Z " fill="#000000" transform="translate(39,275)"/>
<path d="M0 0 C1 4 1 4 1 4 Z " fill="#000000" transform="translate(401,218)"/>
<path d="M0 0 C1 4 1 4 1 4 Z " fill="#000000" transform="translate(7,195)"/>
<path d="M0 0 C3 1 3 1 3 1 Z " fill="#000000" transform="translate(174,569)"/>
<path d="M0 0 C0.66 0 1.32 0 2 0 C1.67 0.66 1.34 1.32 1 2 C0.67 1.34 0.34 0.68 0 0 Z " fill="#000000" transform="translate(129,522)"/>
<path d="M0 0 C0.66 0 1.32 0 2 0 C1.67 0.66 1.34 1.32 1 2 C0.67 1.34 0.34 0.68 0 0 Z " fill="#000000" transform="translate(304,507)"/>
<path d="M0 0 C0.66 0 1.32 0 2 0 C1.67 0.66 1.34 1.32 1 2 C0.67 1.34 0.34 0.68 0 0 Z " fill="#000000" transform="translate(55,489)"/>
<path d="M0 0 C0.66 0.66 1.32 1.32 2 2 C1.34 2 0.68 2 0 2 C0 1.34 0 0.68 0 0 Z " fill="#000000" transform="translate(79,331)"/>
<path d="" fill="#000000" transform="translate(0,0)"/>
<path d="M0 0 C2 1 2 1 2 1 Z " fill="#000000" transform="translate(227,581)"/>
<path d="M0 0 C2 1 2 1 2 1 Z " fill="#000000" transform="translate(200,579)"/>
<path d="" fill="#000000" transform="translate(0,0)"/>
<path d="" fill="#000000" transform="translate(0,0)"/>
<path d="" fill="#000000" transform="translate(0,0)"/>
<path d="M0 0 C2 1 2 1 2 1 Z " fill="#000000" transform="translate(198,449)"/>
<path d="M0 0 C2 1 2 1 2 1 Z " fill="#000000" transform="translate(118,379)"/>
<path d="" fill="#000000" transform="translate(0,0)"/>
<path d="" fill="#000000" transform="translate(0,0)"/>
<path d="" fill="#000000" transform="translate(0,0)"/>
<path d="" fill="#000000" transform="translate(0,0)"/>
<path d="M0 0 C2 1 2 1 2 1 Z " fill="#000000" transform="translate(51,302)"/>
<path d="" fill="#000000" transform="translate(0,0)"/>
<path d="" fill="#000000" transform="translate(0,0)"/>
<path d="" fill="#000000" transform="translate(0,0)"/>
<path d="" fill="#000000" transform="translate(0,0)"/>
<path d="" fill="#000000" transform="translate(0,0)"/>
<path d="" fill="#000000" transform="translate(0,0)"/>
<path d="" fill="#000000" transform="translate(0,0)"/>
<path d="" fill="#000000" transform="translate(0,0)"/>
<path d="" fill="#000000" transform="translate(0,0)"/>
<path d="" fill="#000000" transform="translate(0,0)"/>
<path d="" fill="#000000" transform="translate(0,0)"/>
<path d="M0 0 C2 1 2 1 2 1 Z " fill="#000000" transform="translate(435,98)"/>
<path d="M0 0 C2 1 2 1 2 1 Z " fill="#000000" transform="translate(420,94)"/>
<path d="M0 0 C2 1 2 1 2 1 Z " fill="#000000" transform="translate(150,70)"/>
<path d="M0 0 C2 1 2 1 2 1 Z " fill="#000000" transform="translate(225,6)"/>
<path d="" fill="#000000" transform="translate(0,0)"/>
<path d="" fill="#000000" transform="translate(0,0)"/>
<path d="" fill="#000000" transform="translate(0,0)"/>
<path d="" fill="#000000" transform="translate(0,0)"/>
<path d="" fill="#000000" transform="translate(0,0)"/>
<path d="" fill="#000000" transform="translate(0,0)"/>
<path d="" fill="#000000" transform="translate(0,0)"/>
<path d="" fill="#000000" transform="translate(0,0)"/>
<path d="" fill="#000000" transform="translate(0,0)"/>
<path d="" fill="#000000" transform="translate(0,0)"/>
<path d="" fill="#000000" transform="translate(0,0)"/>
<path d="" fill="#000000" transform="translate(0,0)"/>
<path d="" fill="#000000" transform="translate(0,0)"/>
<path d="" fill="#000000" transform="translate(0,0)"/>
<path d="" fill="#000000" transform="translate(0,0)"/>
<path d="" fill="#000000" transform="translate(0,0)"/>
<path d="" fill="#000000" transform="translate(0,0)"/>
<path d="" fill="#000000" transform="translate(0,0)"/>
<path d="" fill="#000000" transform="translate(0,0)"/>
<path d="" fill="#000000" transform="translate(0,0)"/>
<path d="" fill="#000000" transform="translate(0,0)"/>
<path d="" fill="#000000" transform="translate(0,0)"/>
<path d="" fill="#000000" transform="translate(0,0)"/>
<path d="" fill="#000000" transform="translate(0,0)"/>
<path d="" fill="#000000" transform="translate(0,0)"/>
<path d="" fill="#000000" transform="translate(0,0)"/>
<path d="" fill="#000000" transform="translate(0,0)"/>
<path d="" fill="#000000" transform="translate(0,0)"/>
<path d="" fill="#000000" transform="translate(0,0)"/>
<path d="" fill="#000000" transform="translate(0,0)"/>
<path d="" fill="#000000" transform="translate(0,0)"/>
<path d="" fill="#000000" transform="translate(0,0)"/>
<path d="" fill="#000000" transform="translate(0,0)"/>
<path d="" fill="#000000" transform="translate(0,0)"/>
<path d="" fill="#000000" transform="translate(0,0)"/>
<path d="" fill="#000000" transform="translate(0,0)"/>
<path d="" fill="#000000" transform="translate(0,0)"/>
<path d="" fill="#000000" transform="translate(0,0)"/>
<path d="" fill="#000000" transform="translate(0,0)"/>
<path d="" fill="#000000" transform="translate(0,0)"/>
<path d="" fill="#000000" transform="translate(0,0)"/>
<path d="" fill="#000000" transform="translate(0,0)"/>
<path d="" fill="#000000" transform="translate(0,0)"/>
<path d="" fill="#000000" transform="translate(0,0)"/>
<path d="" fill="#000000" transform="translate(0,0)"/>
<path d="" fill="#000000" transform="translate(0,0)"/>
<path d="" fill="#000000" transform="translate(0,0)"/>
<path d="" fill="#000000" transform="translate(0,0)"/>
<path d="" fill="#000000" transform="translate(0,0)"/>
<path d="" fill="#000000" transform="translate(0,0)"/>
<path d="" fill="#000000" transform="translate(0,0)"/>
<path d="" fill="#000000" transform="translate(0,0)"/>
<path d="" fill="#000000" transform="translate(0,0)"/>
<path d="" fill="#000000" transform="translate(0,0)"/>
<path d="" fill="#000000" transform="translate(0,0)"/>
<path d="" fill="#000000" transform="translate(0,0)"/>
<path d="" fill="#000000" transform="translate(0,0)"/>
<path d="" fill="#000000" transform="translate(0,0)"/>
<path d="" fill="#000000" transform="translate(0,0)"/>
<path d="" fill="#000000" transform="translate(0,0)"/>
<path d="" fill="#000000" transform="translate(0,0)"/>
<path d="" fill="#000000" transform="translate(0,0)"/>
<path d="" fill="#000000" transform="translate(0,0)"/>
<path d="" fill="#000000" transform="translate(0,0)"/>
<path d="" fill="#000000" transform="translate(0,0)"/>
<path d="" fill="#000000" transform="translate(0,0)"/>
<path d="" fill="#000000" transform="translate(0,0)"/>
<path d="" fill="#000000" transform="translate(0,0)"/>
<path d="" fill="#000000" transform="translate(0,0)"/>
<path d="" fill="#000000" transform="translate(0,0)"/>
<path d="" fill="#000000" transform="translate(0,0)"/>
<path d="" fill="#000000" transform="translate(0,0)"/>
<path d="" fill="#000000" transform="translate(0,0)"/>
<path d="" fill="#000000" transform="translate(0,0)"/>
<path d="" fill="#000000" transform="translate(0,0)"/>
<path d="" fill="#000000" transform="translate(0,0)"/>
<path d="" fill="#000000" transform="translate(0,0)"/>
<path d="" fill="#000000" transform="translate(0,0)"/>
<path d="" fill="#000000" transform="translate(0,0)"/>
<path d="" fill="#000000" transform="translate(0,0)"/>
<path d="" fill="#000000" transform="translate(0,0)"/>
<path d="" fill="#000000" transform="translate(0,0)"/>
<path d="" fill="#000000" transform="translate(0,0)"/>
<path d="" fill="#000000" transform="translate(0,0)"/>
<path d="" fill="#000000" transform="translate(0,0)"/>
<path d="" fill="#000000" transform="translate(0,0)"/>
<path d="" fill="#000000" transform="translate(0,0)"/>
<path d="" fill="#000000" transform="translate(0,0)"/>
<path d="" fill="#000000" transform="translate(0,0)"/>
<path d="" fill="#000000" transform="translate(0,0)"/>
<path d="" fill="#000000" transform="translate(0,0)"/>
<path d="" fill="#000000" transform="translate(0,0)"/>
<path d="" fill="#000000" transform="translate(0,0)"/>
<path d="" fill="#000000" transform="translate(0,0)"/>
<path d="" fill="#000000" transform="translate(0,0)"/>
<path d="" fill="#000000" transform="translate(0,0)"/>
<path d="" fill="#000000" transform="translate(0,0)"/>
<path d="" fill="#000000" transform="translate(0,0)"/>
<path d="" fill="#000000" transform="translate(0,0)"/>
<path d="" fill="#000000" transform="translate(0,0)"/>
<path d="" fill="#000000" transform="translate(0,0)"/>
<path d="" fill="#000000" transform="translate(0,0)"/>
<path d="" fill="#000000" transform="translate(0,0)"/>
<path d="" fill="#000000" transform="translate(0,0)"/>
<path d="" fill="#000000" transform="translate(0,0)"/>
<path d="" fill="#000000" transform="translate(0,0)"/>
<path d="" fill="#000000" transform="translate(0,0)"/>
<path d="" fill="#000000" transform="translate(0,0)"/>
<path d="" fill="#000000" transform="translate(0,0)"/>
<path d="" fill="#000000" transform="translate(0,0)"/>
<path d="" fill="#000000" transform="translate(0,0)"/>
<path d="" fill="#000000" transform="translate(0,0)"/>
<path d="" fill="#000000" transform="translate(0,0)"/>
<path d="" fill="#000000" transform="translate(0,0)"/>
<path d="" fill="#000000" transform="translate(0,0)"/>
<path d="" fill="#000000" transform="translate(0,0)"/>
<path d="" fill="#000000" transform="translate(0,0)"/>
<path d="" fill="#000000" transform="translate(0,0)"/>
<path d="" fill="#000000" transform="translate(0,0)"/>
<path d="" fill="#000000" transform="translate(0,0)"/>
<path d="" fill="#000000" transform="translate(0,0)"/>
<path d="" fill="#000000" transform="translate(0,0)"/>
<path d="" fill="#000000" transform="translate(0,0)"/>
<path d="" fill="#000000" transform="translate(0,0)"/>
<path d="" fill="#000000" transform="translate(0,0)"/>
<path d="" fill="#000000" transform="translate(0,0)"/>
<path d="" fill="#000000" transform="translate(0,0)"/>
<path d="" fill="#000000" transform="translate(0,0)"/>
<path d="" fill="#000000" transform="translate(0,0)"/>
<path d="" fill="#000000" transform="translate(0,0)"/>
<path d="" fill="#000000" transform="translate(0,0)"/>
<path d="" fill="#000000" transform="translate(0,0)"/>
<path d="" fill="#000000" transform="translate(0,0)"/>
<path d="" fill="#000000" transform="translate(0,0)"/>
<path d="" fill="#000000" transform="translate(0,0)"/>
<path d="" fill="#000000" transform="translate(0,0)"/>
<path d="" fill="#000000" transform="translate(0,0)"/>
<path d="" fill="#000000" transform="translate(0,0)"/>
<path d="" fill="#000000" transform="translate(0,0)"/>
<path d="" fill="#000000" transform="translate(0,0)"/>
<path d="" fill="#000000" transform="translate(0,0)"/>
<path d="" fill="#000000" transform="translate(0,0)"/>
<path d="" fill="#000000" transform="translate(0,0)"/>
<path d="" fill="#000000" transform="translate(0,0)"/>
<path d="" fill="#000000" transform="translate(0,0)"/>
<path d="" fill="#000000" transform="translate(0,0)"/>
<path d="" fill="#000000" transform="translate(0,0)"/>
<path d="" fill="#000000" transform="translate(0,0)"/>
<path d="" fill="#000000" transform="translate(0,0)"/>
<path d="" fill="#000000" transform="translate(0,0)"/>
<path d="" fill="#000000" transform="translate(0,0)"/>
<path d="" fill="#000000" transform="translate(0,0)"/>
<path d="" fill="#000000" transform="translate(0,0)"/>
<path d="" fill="#000000" transform="translate(0,0)"/>
<path d="" fill="#000000" transform="translate(0,0)"/>
<path d="" fill="#000000" transform="translate(0,0)"/>
<path d="" fill="#000000" transform="translate(0,0)"/>
<path d="" fill="#000000" transform="translate(0,0)"/>
<path d="" fill="#000000" transform="translate(0,0)"/>
<path d="" fill="#000000" transform="translate(0,0)"/>
<path d="" fill="#000000" transform="translate(0,0)"/>
<path d="" fill="#000000" transform="translate(0,0)"/>
<path d="" fill="#000000" transform="translate(0,0)"/>
<path d="" fill="#000000" transform="translate(0,0)"/>
<path d="" fill="#000000" transform="translate(0,0)"/>
<path d="" fill="#000000" transform="translate(0,0)"/>
<path d="" fill="#000000" transform="translate(0,0)"/>
<path d="" fill="#000000" transform="translate(0,0)"/>
<path d="" fill="#000000" transform="translate(0,0)"/>
<path d="" fill="#000000" transform="translate(0,0)"/>
<path d="" fill="#000000" transform="translate(0,0)"/>
<path d="" fill="#000000" transform="translate(0,0)"/>
<path d="" fill="#000000" transform="translate(0,0)"/>
<path d="" fill="#000000" transform="translate(0,0)"/>
<path d="" fill="#000000" transform="translate(0,0)"/>
<path d="" fill="#000000" transform="translate(0,0)"/>
<path d="" fill="#000000" transform="translate(0,0)"/>
<path d="" fill="#000000" transform="translate(0,0)"/>
<path d="" fill="#000000" transform="translate(0,0)"/>
<path d="" fill="#000000" transform="translate(0,0)"/>
<path d="" fill="#000000" transform="translate(0,0)"/>
<path d="" fill="#000000" transform="translate(0,0)"/>
<path d="" fill="#000000" transform="translate(0,0)"/>
<path d="" fill="#000000" transform="translate(0,0)"/>
<path d="" fill="#000000" transform="translate(0,0)"/>
<path d="" fill="#000000" transform="translate(0,0)"/>
<path d="" fill="#000000" transform="translate(0,0)"/>
<path d="" fill="#000000" transform="translate(0,0)"/>
<path d="" fill="#000000" transform="translate(0,0)"/>
<path d="" fill="#000000" transform="translate(0,0)"/>
<path d="" fill="#000000" transform="translate(0,0)"/>
<path d="" fill="#000000" transform="translate(0,0)"/>
<path d="" fill="#000000" transform="translate(0,0)"/>
<path d="" fill="#000000" transform="translate(0,0)"/>
<path d="" fill="#000000" transform="translate(0,0)"/>
<path d="" fill="#000000" transform="translate(0,0)"/>
<path d="" fill="#000000" transform="translate(0,0)"/>
<path d="" fill="#000000" transform="translate(0,0)"/>
<path d="" fill="#000000" transform="translate(0,0)"/>
<path d="" fill="#000000" transform="translate(0,0)"/>
<path d="" fill="#000000" transform="translate(0,0)"/>
<path d="" fill="#000000" transform="translate(0,0)"/>
<path d="" fill="#000000" transform="translate(0,0)"/>
<path d="" fill="#000000" transform="translate(0,0)"/>
<path d="" fill="#000000" transform="translate(0,0)"/>
<path d="" fill="#000000" transform="translate(0,0)"/>
<path d="" fill="#000000" transform="translate(0,0)"/>
<path d="" fill="#000000" transform="translate(0,0)"/>
<path d="" fill="#000000" transform="translate(0,0)"/>
<path d="" fill="#000000" transform="translate(0,0)"/>
<path d="" fill="#000000" transform="translate(0,0)"/>
<path d="" fill="#000000" transform="translate(0,0)"/>
<path d="" fill="#000000" transform="translate(0,0)"/>
<path d="" fill="#000000" transform="translate(0,0)"/>
<path d="" fill="#000000" transform="translate(0,0)"/>
<path d="" fill="#000000" transform="translate(0,0)"/>
<path d="" fill="#000000" transform="translate(0,0)"/>
<path d="" fill="#000000" transform="translate(0,0)"/>
<path d="" fill="#000000" transform="translate(0,0)"/>
<path d="" fill="#000000" transform="translate(0,0)"/>
<path d="" fill="#000000" transform="translate(0,0)"/>
<path d="" fill="#000000" transform="translate(0,0)"/>
<path d="" fill="#000000" transform="translate(0,0)"/>
<path d="" fill="#000000" transform="translate(0,0)"/>
<path d="" fill="#000000" transform="translate(0,0)"/>
<path d="" fill="#000000" transform="translate(0,0)"/>
<path d="" fill="#000000" transform="translate(0,0)"/>
<path d="" fill="#000000" transform="translate(0,0)"/>
<path d="" fill="#000000" transform="translate(0,0)"/>
<path d="" fill="#000000" transform="translate(0,0)"/>
<path d="" fill="#000000" transform="translate(0,0)"/>
<path d="" fill="#000000" transform="translate(0,0)"/>
<path d="" fill="#000000" transform="translate(0,0)"/>
<path d="" fill="#000000" transform="translate(0,0)"/>
<path d="" fill="#000000" transform="translate(0,0)"/>
<path d="" fill="#000000" transform="translate(0,0)"/>
<path d="" fill="#000000" transform="translate(0,0)"/>
<path d="" fill="#000000" transform="translate(0,0)"/>
<path d="" fill="#000000" transform="translate(0,0)"/>
<path d="" fill="#000000" transform="translate(0,0)"/>
<path d="" fill="#000000" transform="translate(0,0)"/>
<path d="" fill="#000000" transform="translate(0,0)"/>
<path d="" fill="#000000" transform="translate(0,0)"/>
<path d="" fill="#000000" transform="translate(0,0)"/>
<path d="" fill="#000000" transform="translate(0,0)"/>
<path d="" fill="#000000" transform="translate(0,0)"/>
<path d="" fill="#000000" transform="translate(0,0)"/>
<path d="" fill="#000000" transform="translate(0,0)"/>
<path d="" fill="#000000" transform="translate(0,0)"/>
<path d="" fill="#000000" transform="translate(0,0)"/>
<path d="" fill="#000000" transform="translate(0,0)"/>
<path d="" fill="#000000" transform="translate(0,0)"/>
<path d="" fill="#000000" transform="translate(0,0)"/>
</svg>
